<svg width="54" height="52" viewBox="0 0 54 52" fill="none" xmlns="http://www.w3.org/2000/svg">
<path d="M37.9907 4.33325H15.6434C9.47234 4.33325 4.46973 9.1835 4.46973 15.1666V36.8332C4.46973 42.8163 9.47234 47.6666 15.6434 47.6666H37.9907C44.1617 47.6666 49.1643 42.8163 49.1643 36.8332V15.1666C49.1643 9.1835 44.1617 4.33325 37.9907 4.33325Z" stroke="#F9F9F9" stroke-width="2" stroke-linecap="round" stroke-linejoin="round"/>
<path d="M35.7558 24.6352C36.0316 26.4384 35.7139 28.28 34.8479 29.898C33.982 31.5161 32.6118 32.8282 30.9324 33.6478C29.2529 34.4674 27.3497 34.7526 25.4934 34.463C23.6371 34.1734 21.9223 33.3237 20.5928 32.0347C19.2633 30.7457 18.3869 29.0831 18.0881 27.2833C17.7894 25.4835 18.0837 23.6383 18.929 22.01C19.7743 20.3817 21.1276 19.0533 22.7965 18.2137C24.4654 17.3741 26.3649 17.0661 28.2247 17.3335C30.1218 17.6062 31.8782 18.4633 33.2343 19.7782C34.5904 21.093 35.4744 22.7958 35.7558 24.6352Z" stroke="#F9F9F9" stroke-width="2" stroke-linecap="round" stroke-linejoin="round"/>
<path d="M39.1074 14.0833H39.1291" stroke="#F9F9F9" stroke-width="2" stroke-linecap="round" stroke-linejoin="round"/>
</svg>
