<svg width="54" height="52" viewBox="0 0 54 52" fill="none" xmlns="http://www.w3.org/2000/svg">
<path d="M50.737 13.9101C50.4715 12.8818 49.9309 11.9397 49.1696 11.1788C48.4084 10.4179 47.4536 9.86532 46.4016 9.57675C42.5578 8.66675 27.1829 8.66675 27.1829 8.66675C27.1829 8.66675 11.808 8.66675 7.96424 9.66341C6.91223 9.95198 5.9574 10.5046 5.19618 11.2655C4.43496 12.0263 3.89432 12.9685 3.62886 13.9967C2.9254 17.7788 2.5813 21.6154 2.60089 25.4584C2.57581 29.3303 2.91993 33.1962 3.62886 37.0067C3.92152 38.0031 4.47428 38.9094 5.23372 39.6381C5.99316 40.3668 6.93363 40.8933 7.96424 41.1667C11.808 42.1634 27.1829 42.1634 27.1829 42.1634C27.1829 42.1634 42.5578 42.1634 46.4016 41.1667C47.4536 40.8782 48.4084 40.3256 49.1696 39.5647C49.9309 38.8038 50.4715 37.8617 50.737 36.8334C51.435 33.0799 51.7791 29.2725 51.7649 25.4584C51.79 21.5865 51.4459 17.7206 50.737 13.9101Z" stroke="#F9F9F9" stroke-width="2" stroke-linecap="round" stroke-linejoin="round"/>
<path d="M22.1553 32.5433L35.005 25.4583L22.1553 18.3733V32.5433Z" stroke="#F9F9F9" stroke-width="2" stroke-linecap="round" stroke-linejoin="round"/>
</svg>
